<svg fill="none" height="259" viewBox="0 0 225 259" width="225" xmlns="http://www.w3.org/2000/svg" xmlns:xlink="http://www.w3.org/1999/xlink"><mask id="a" fill="#fff"><path clip-rule="evenodd" d="m212.884 125.715c-1.805 12.988-5.744 25.232-11.425 36.312-1.466 11.576-5.833 24.779-12.191 37.636 5.645 1.804 9.732 7.093 9.732 13.337 0 7.732-6.268 14-14 14h-4.012c-.261 5.567-4.857 10-10.488 10h-7.038c-12.653 13.137-27.105 22-41.232 22-32.2987 0-71.5017-37.516-83.5391-72.427-1.0864-1.171-2.1483-2.368-3.1846-3.591-2.3889.664-4.9062 1.018-7.5063 1.018-15.464 0-28-12.536-28-28 0-9.273 4.50759-17.493 11.4511-22.589-1.60469-7.696-2.4511-15.698-2.4511-23.911 0-60.4752 45.8908-109.5 102.5-109.5 50.413 0 92.326 38.8806 100.897 90.1037 7.346 2.6262 12.603 9.6474 12.603 17.8963 0 8.065-5.026 14.957-12.116 17.715z" fill="#fff" fill-rule="evenodd"/></mask><path clip-rule="evenodd" d="m212.884 125.715c-1.805 12.988-5.744 25.232-11.425 36.312-1.466 11.576-5.833 24.779-12.191 37.636 5.645 1.804 9.732 7.093 9.732 13.337 0 7.732-6.268 14-14 14h-4.012c-.261 5.567-4.857 10-10.488 10h-7.038c-12.653 13.137-27.105 22-41.232 22-32.2987 0-71.5017-37.516-83.5391-72.427-1.0864-1.171-2.1483-2.368-3.1846-3.591-2.3889.664-4.9062 1.018-7.5063 1.018-15.464 0-28-12.536-28-28 0-9.273 4.50759-17.493 11.4511-22.589-1.60469-7.696-2.4511-15.698-2.4511-23.911 0-60.4752 45.8908-109.5 102.5-109.5 50.413 0 92.326 38.8806 100.897 90.1037 7.346 2.6262 12.603 9.6474 12.603 17.8963 0 8.065-5.026 14.957-12.116 17.715z" fill="#f7d444" fill-rule="evenodd"/><path d="m201.459 162.027-2.67-1.369-.24.469-.066.523zm11.425-36.312-1.087-2.796-1.642.638-.242 1.745zm-23.616 73.948-2.689-1.33-1.545 3.125 3.321 1.062zm-8.28 27.337v-3h-2.862l-.134 2.86zm-17.526 10v-3h-1.276l-.885.919zm-124.7711-50.427 2.8361-.978-.2063-.598-.4304-.464zm-3.1846-3.591 2.2883-1.94-1.2412-1.464-1.8495.514zm-24.0552-49.571 1.775 2.419 1.5558-1.142-.3939-1.889zm200.9459-43.3073-2.959.4951.291 1.737 1.658.5929zm-8.269 73.2923c5.834-11.378 9.876-23.945 11.727-37.269l-5.942-.825c-1.758 12.652-5.595 24.574-11.124 35.356zm-12.171 37.596c6.463-13.07 10.96-26.597 12.478-38.588l-5.952-.754c-1.413 11.161-5.652 24.039-11.904 36.683zm10.043 12.008c0-7.586-4.967-14.004-11.818-16.195l-1.827 5.715c4.438 1.419 7.645 5.579 7.645 10.48zm-17 17c9.389 0 17-7.611 17-17h-6c0 6.075-4.925 11-11 11zm-4.012 0h4.012v-6h-4.012zm-2.996-3.14c-.187 3.973-3.47 7.14-7.492 7.14v6c7.241 0 13.149-5.7 13.485-12.86zm-7.492 7.14h-7.038v6h7.038zm-48.27 28c15.338 0 30.525-9.56 43.393-22.919l-4.322-4.162c-12.439 12.915-26.155 21.081-39.071 21.081zm-86.3753-74.449c6.2143 18.023 19.3549 36.543 35.0062 50.562 15.5921 13.966 34.1581 23.887 51.3691 23.887v-6c-15.087 0-32.2724-8.837-47.3659-22.356-15.0343-13.467-27.5139-31.16-33.3371-48.049zm-2.6367-2.629c1.0651 1.257 2.1566 2.487 3.2734 3.692l4.3989-4.081c-1.0559-1.138-2.0881-2.302-3.0957-3.491zm-5.218 2.078c2.8739 0 5.661-.392 8.3087-1.127l-1.6048-5.781c-2.1301.591-4.3776.908-6.7039.908zm-31-31c0 17.121 13.8792 31 31 31v-6c-13.8071 0-25-11.193-25-25zm12.67621-25.007c-7.68053 5.636-12.67621 14.738-12.67621 25.007h6c0-8.277 4.0195-15.615 10.2261-20.17zm-3.67621-21.493c0 8.42.86773 16.627 2.51429 24.524l5.87371-1.225c-1.5629-7.496-2.388-15.292-2.388-23.299zm105.5-112.5c-58.4496 0-105.5 50.5577-105.5 112.5h6c0-59.0081 44.7313-106.5 99.5-106.5zm103.856 92.6086c-8.785-52.4999-51.812-92.6086-103.856-92.6086v6c48.783 0 89.581 37.6525 97.938 87.5988zm12.644 18.3914c0-9.5561-6.091-17.6819-14.593-20.7212l-2.02 5.6499c6.191 2.2129 10.613 8.1293 10.613 15.0713zm-14.029 20.511c8.205-3.191 14.029-11.167 14.029-20.511h-6c0 6.787-4.227 12.595-10.203 14.919z" fill="#000" mask="url(#a)"/><g stroke="#000" stroke-linecap="round" stroke-width="3"><path d="m12.5879 162.78c-2.5339-4.389.7753-11.044 7.3915-14.864 6.6161-3.819 14.0338-3.358 16.5677 1.031"/><path d="m39.6667 169.542c-4.9968 3.226-12.4145.626-16.568-5.808s-3.4699-14.264 1.5268-17.49"/><path d="m193.5 89.5003c8.5-1 13 0 18 1.9997"/><path d="m98.3094 97.3674c7.8056-10.5033 25.5776-11.0173 30.1816-7.3675"/></g></svg>